<svg xmlns="http://www.w3.org/2000/svg" width="56.483" height="39.104" viewBox="0 0 56.483 39.104">
  <g id="Group_444" data-name="Group 444" transform="translate(0.25 0.255)">
    <g id="Group_438" data-name="Group 438" transform="translate(0 5.562)">
      <g id="Group_433" data-name="Group 433" transform="translate(0 0)">
        <path id="Path_66" data-name="Path 66" d="M-115.558,588.394a.524.524,0,0,0,.525.525h1.195a5.9,5.9,0,0,0,5.771,5.672,5.9,5.9,0,0,0,5.771-5.672h1.195a.524.524,0,0,0,.525-.525,8.124,8.124,0,0,0-.166-1.629h7.119a8.136,8.136,0,0,0-.173,1.655.524.524,0,0,0,.525.525h1.2a5.9,5.9,0,0,0,5.771,5.67,5.9,5.9,0,0,0,5.771-5.67h1.2a.524.524,0,0,0,.525-.525,8.14,8.14,0,0,0-.173-1.655h1.617a.524.524,0,0,0,.525-.525v-4.212a9.554,9.554,0,0,0-2.279-6.172,2.1,2.1,0,0,0,2.038-2.093v-.4a2.1,2.1,0,0,0-2.1-2.1H-93.428a2.1,2.1,0,0,0-2.1,2.1v.4a2.094,2.094,0,0,0,1.938,2.083,9.553,9.553,0,0,0-2.286,6.182v.363c-3.56.055-5.9-.5-7.138-1.7-1.116-1.083-1.345-2.691-1.345-4.772,0-1.741,1.675-8.19,1.692-8.255a.534.534,0,0,0,.017-.132V563.48a.524.524,0,0,0-.525-.525h-.508l.219-.328h3.831a.524.524,0,0,0,.525-.525.524.524,0,0,0-.525-.525h-4.112a.525.525,0,0,0-.437.234l-.763,1.144h-4.75a2.556,2.556,0,0,0-2.553,2.553,2.556,2.556,0,0,0,2.553,2.553h1.092c-2.332,1.871-5.78,5.729-5.808,16.195A7.989,7.989,0,0,0-115.558,588.394Zm36.371-13.58H-93.428a1.05,1.05,0,0,1-1.049-1.049v-.4a1.05,1.05,0,0,1,1.049-1.049h14.241a1.05,1.05,0,0,1,1.049,1.049v.4A1.051,1.051,0,0,1-79.187,574.814Zm-11.842,14.131h1.522a3.27,3.27,0,0,0,3.2,2.982,3.27,3.27,0,0,0,3.2-2.982h1.523a4.846,4.846,0,0,1-4.721,4.621A4.846,4.846,0,0,1-91.029,588.944Zm4.721,1.933a2.208,2.208,0,0,1-2.134-1.933h4.269A2.208,2.208,0,0,1-86.307,590.877Zm-6.422-2.982a6.587,6.587,0,0,1,6.422-6.238,6.587,6.587,0,0,1,6.422,6.238ZM-104.382,564h.684v3.465c-.189.731-1.709,6.657-1.709,8.454,0,1.892.129,4.036,1.664,5.525s4.2,2.106,8.409,1.98a.525.525,0,0,0,.508-.525v-.875a8.387,8.387,0,0,1,2.664-6.165h11.6a8.384,8.384,0,0,1,2.665,6.165v3.687h-1.392a7.519,7.519,0,0,0-7.018-5.107,7.519,7.519,0,0,0-7.018,5.107h-7.715a7.522,7.522,0,0,0-7.027-5.132,7.312,7.312,0,0,0-5.264,2.262c.362-10.322,4.336-13.224,6.294-14.65l.325-.238a.523.523,0,0,0,.185-.586.525.525,0,0,0-.5-.36h-2.667a1.5,1.5,0,0,1-1.5-1.5,1.505,1.505,0,0,1,1.5-1.5h4.049m-7.146,24.915h1.522a3.27,3.27,0,0,0,3.2,2.983,3.27,3.27,0,0,0,3.2-2.983h1.522a4.847,4.847,0,0,1-4.721,4.622A4.846,4.846,0,0,1-112.789,588.919Zm4.721,1.935a2.208,2.208,0,0,1-2.135-1.934h4.27A2.209,2.209,0,0,1-108.068,590.853Zm-6.422-2.983a6.587,6.587,0,0,1,6.422-6.237,6.587,6.587,0,0,1,6.422,6.237Z" transform="translate(115.558 -561.578)" fill="#214d3a" stroke="#214d3a" stroke-width="0.5"/>
      </g>
      <g id="Group_434" data-name="Group 434" transform="translate(39.993 4.607)">
        <path id="Path_67" data-name="Path 67" d="M-39.338,570.884a.524.524,0,0,0,.525.525h5.323a.524.524,0,0,0,.525-.525.524.524,0,0,0-.525-.525h-5.323A.524.524,0,0,0-39.338,570.884Z" transform="translate(39.338 -570.359)" fill="#214d3a" stroke="#214d3a" stroke-width="0.5"/>
      </g>
      <g id="Group_590" data-name="Group 590" transform="translate(44.993 4.607)">
        <path id="Path_67-2" data-name="Path 67" d="M-39.338,570.884a.524.524,0,0,0,.525.525h5.323a.524.524,0,0,0,.525-.525.524.524,0,0,0-.525-.525h-5.323A.524.524,0,0,0-39.338,570.884Z" transform="translate(39.338 -570.359)" fill="#214d3a" stroke="#214d3a" stroke-width="0.5"/>
      </g>
      <g id="Group_435" data-name="Group 435" transform="translate(44.591 9.204)">
        <path id="Path_68" data-name="Path 68" d="M-31.955,580.168h3.343a.524.524,0,0,0,.525-.525.524.524,0,0,0-.525-.525h-3.343a.524.524,0,0,0-.525.525A.524.524,0,0,0-31.955,580.168Z" transform="translate(32.48 -579.119)" fill="#214d3a" stroke="#214d3a" stroke-width="0.5"/>
      </g>
      <g id="Group_591" data-name="Group 591" transform="translate(51.591 9.204)">
        <path id="Path_68-2" data-name="Path 68" d="M-31.955,580.168h3.343a.524.524,0,0,0,.525-.525.524.524,0,0,0-.525-.525h-3.343a.524.524,0,0,0-.525.525A.524.524,0,0,0-31.955,580.168Z" transform="translate(32.48 -579.119)" fill="#214d3a" stroke="#214d3a" stroke-width="0.5"/>
      </g>
      <g id="Group_436" data-name="Group 436" transform="translate(42.993 13.861)">
        <path id="Path_69" data-name="Path 69" d="M-39.338,588.519a.524.524,0,0,0,.525.525h5.323a.524.524,0,0,0,.525-.525.524.524,0,0,0-.525-.525h-5.323A.524.524,0,0,0-39.338,588.519Z" transform="translate(39.338 -587.994)" fill="#214d3a" stroke="#214d3a" stroke-width="0.5"/>
      </g>
      <g id="Group_593" data-name="Group 593" transform="translate(47.993 13.861)">
        <path id="Path_69-2" data-name="Path 69" d="M-39.338,588.519a.524.524,0,0,0,.525.525h5.323a.524.524,0,0,0,.525-.525.524.524,0,0,0-.525-.525h-5.323A.524.524,0,0,0-39.338,588.519Z" transform="translate(39.338 -587.994)" fill="#214d3a" stroke="#214d3a" stroke-width="0.5"/>
      </g>
      <g id="Group_437" data-name="Group 437" transform="translate(40.568 9.234)">
        <path id="Path_70" data-name="Path 70" d="M-36.544,580.226a.524.524,0,0,0,.525-.525.524.524,0,0,0-.525-.525h-1.173a.524.524,0,0,0-.525.525.524.524,0,0,0,.525.525Z" transform="translate(38.242 -579.177)" fill="#214d3a" stroke="#214d3a" stroke-width="0.5"/>
      </g>
      <g id="Group_592" data-name="Group 592" transform="translate(45.568 9.234)">
        <path id="Path_70-2" data-name="Path 70" d="M-36.544,580.226a.524.524,0,0,0,.525-.525.524.524,0,0,0-.525-.525h-1.173a.524.524,0,0,0-.525.525.524.524,0,0,0,.525.525Z" transform="translate(38.242 -579.177)" fill="#214d3a" stroke="#214d3a" stroke-width="0.5"/>
      </g>
    </g>
    <g id="Group_443" data-name="Group 443" transform="translate(22.456)">
      <g id="Group_439" data-name="Group 439" transform="translate(0)">
        <path id="Path_71" data-name="Path 71" d="M-59.768,565.254H-72.225a.535.535,0,0,1-.535-.535v-13.2a.535.535,0,0,1,.535-.535h7.585a5.233,5.233,0,0,1,4.073,1.589,5.1,5.1,0,0,1,1.333,3.124v9.019A.535.535,0,0,1-59.768,565.254Zm-11.922-1.07H-60.3v-8.449a4.015,4.015,0,0,0-1.047-2.429,4.237,4.237,0,0,0-3.256-1.25h-7.085Z" transform="translate(72.76 -550.979)" fill="#214d3a" stroke="#214d3a" stroke-width="0.5"/>
      </g>
      <g id="Group_440" data-name="Group 440" transform="translate(0.64 4.96)">
        <path id="Path_72" data-name="Path 72" d="M-59.189,561.5H-71.005a.535.535,0,0,1-.535-.535.535.535,0,0,1,.535-.535h11.817a.535.535,0,0,1,.535.535A.535.535,0,0,1-59.189,561.5Z" transform="translate(71.54 -560.431)" fill="#214d3a" stroke="#214d3a" stroke-width="0.5"/>
      </g>
      <g id="Group_441" data-name="Group 441" transform="translate(2.856 7.914)">
        <path id="Path_73" data-name="Path 73" d="M-63.828,567.131h-2.955a.535.535,0,0,1-.535-.535.535.535,0,0,1,.535-.535h2.955a.535.535,0,0,1,.535.535A.535.535,0,0,1-63.828,567.131Z" transform="translate(67.317 -566.061)" fill="#214d3a" stroke="#214d3a" stroke-width="0.5"/>
      </g>
      <g id="Group_442" data-name="Group 442" transform="translate(4.333 10.867)">
        <path id="Path_74" data-name="Path 74" d="M-58.8,572.76h-5.17a.535.535,0,0,1-.535-.535.535.535,0,0,1,.535-.535h5.17a.535.535,0,0,1,.535.535A.535.535,0,0,1-58.8,572.76Z" transform="translate(64.502 -571.69)" fill="#214d3a" stroke="#214d3a" stroke-width="0.5"/>
      </g>
    </g>
  </g>
</svg>
