<svg id="Group_985" data-name="Group 985" xmlns="http://www.w3.org/2000/svg" width="40" height="40" viewBox="0 0 40 40">
  <circle id="Ellipse_129" data-name="Ellipse 129" cx="20" cy="20" r="20" fill="#267240"/>
  <g id="Group_984" data-name="Group 984" transform="translate(8.805 11.314)">
    <g id="Icon_feather-shopping-cart" data-name="Icon feather-shopping-cart" transform="translate(0 0.258)">
      <path id="Path_63" data-name="Path 63" d="M14.113,31.057A1.057,1.057,0,1,1,13.057,30,1.057,1.057,0,0,1,14.113,31.057Z" transform="translate(-5.875 -13.741)" fill="#fff" stroke="#fff" stroke-linecap="round" stroke-linejoin="round" stroke-width="1"/>
      <path id="Path_64" data-name="Path 64" d="M30.613,31.057A1.057,1.057,0,1,1,29.557,30,1.057,1.057,0,0,1,30.613,31.057Z" transform="translate(-13.113 -13.741)" fill="#fff" stroke="#fff" stroke-linecap="round" stroke-linejoin="round" stroke-width="1"/>
      <path id="Path_65" data-name="Path 65" d="M1.5,1.5H5.066L7.455,12.553a1.757,1.757,0,0,0,1.783,1.329H17.9a1.757,1.757,0,0,0,1.783-1.329l1.426-6.926H5.958" transform="translate(-1.5 -1.5)" fill="none" stroke="#fff" stroke-linecap="round" stroke-linejoin="round" stroke-width="1"/>
    </g>
    <g id="Group_983" data-name="Group 983" transform="translate(8.694)">
      <g id="Ellipse_130" data-name="Ellipse 130" fill="#fff" stroke="#267240" stroke-width="0.7">
        <circle cx="3.726" cy="3.726" r="3.726" stroke="none"/>
        <circle cx="3.726" cy="3.726" r="3.376" fill="none"/>
      </g>
      <g id="Group_604" data-name="Group 604" transform="translate(2.484 2.484)">
        <line id="Line_4" data-name="Line 4" x2="2.484" transform="translate(2.484 1.242) rotate(180)" fill="none" stroke="#267240" stroke-linecap="round" stroke-width="0.5"/>
        <line id="Line_5" data-name="Line 5" x2="2.484" transform="translate(1.242 2.484) rotate(-90)" fill="none" stroke="#267240" stroke-linecap="round" stroke-width="0.5"/>
      </g>
    </g>
  </g>
</svg>
