<svg xmlns="http://www.w3.org/2000/svg" width="29.205" height="27.991" viewBox="0 0 29.205 27.991">
  <g id="Icon_feather-shopping-cart" data-name="Icon feather-shopping-cart" transform="translate(1.25 1.25)">
    <path id="Path_63" data-name="Path 63" d="M14.428,31.214A1.214,1.214,0,1,1,13.214,30,1.214,1.214,0,0,1,14.428,31.214Z" transform="translate(-3.503 -6.936)" fill="none" stroke="#214d3a" stroke-linecap="round" stroke-linejoin="round" stroke-width="2.5"/>
    <path id="Path_64" data-name="Path 64" d="M30.928,31.214A1.214,1.214,0,1,1,29.714,30,1.214,1.214,0,0,1,30.928,31.214Z" transform="translate(-6.65 -6.936)" fill="none" stroke="#214d3a" stroke-linecap="round" stroke-linejoin="round" stroke-width="2.5"/>
    <path id="Path_65" data-name="Path 65" d="M1.5,1.5H6.356L9.609,17.754a2.428,2.428,0,0,0,2.428,1.954h11.8a2.428,2.428,0,0,0,2.428-1.954L28.205,7.569H7.569" transform="translate(-1.5 -1.5)" fill="none" stroke="#214d3a" stroke-linecap="round" stroke-linejoin="round" stroke-width="2.5"/>
  </g>
</svg>
